<?xml version="1.0" standalone="no"?>
<!DOCTYPE svg PUBLIC "-//W3C//DTD SVG 20010904//EN"
 "http://www.w3.org/TR/2001/REC-SVG-20010904/DTD/svg10.dtd">
<svg version="1.0" xmlns="http://www.w3.org/2000/svg"
 width="1000.000000pt" height="1000.000000pt" viewBox="0 0 1000.000000 1000.000000"
 preserveAspectRatio="xMidYMid meet">
<metadata>
Created by potrace 1.11, written by Peter Selinger 2001-2013
</metadata>
<g transform="translate(0.000000,1000.000000) scale(0.100000,-0.100000)"
fill="#000000" stroke="none">
<path d="M0 5000 l0 -5000 5000 0 5000 0 0 5000 0 5000 -5000 0 -5000 0 0
-5000z m4369 1977 c465 -236 640 -330 655 -350 21 -28 21 -30 21 -1012 l0
-984 -21 -28 c-13 -17 -128 -90 -295 -185 -316 -182 -313 -182 -429 -123 -38
19 -72 35 -75 35 -3 0 -5 -278 -5 -618 0 -579 -1 -619 -18 -652 -16 -30 -61
-59 -302 -198 -211 -120 -292 -162 -317 -162 -23 0 -132 50 -356 162 l-324
161 -90 -51 c-67 -39 -100 -52 -129 -52 -54 1 -1296 630 -1328 673 l-21 28 -3
1537 c-2 1486 -2 1538 17 1572 15 30 61 59 295 193 175 101 290 161 314 164
33 4 92 -23 563 -261 289 -146 529 -266 533 -266 3 0 6 80 6 179 0 169 1 180
23 212 17 25 88 71 297 191 230 132 282 157 315 157 33 0 157 -59 674 -322z
m1671 -1977 l0 -1530 -280 0 -280 0 0 1530 0 1530 280 0 280 0 0 -1530z m1100
910 l0 -620 485 0 485 0 0 620 0 620 280 0 280 0 0 -1530 0 -1530 -280 0 -280
0 0 655 0 655 -485 0 -485 0 0 -655 0 -655 -280 0 -280 0 0 1530 0 1530 280 0
280 0 0 -620z"/>
<path d="M3590 6959 c-58 -33 -108 -64 -112 -67 -3 -4 204 -113 461 -244 l468
-236 117 66 116 66 -203 104 c-222 114 -735 372 -739 372 -2 0 -50 -28 -108
-61z"/>
<path d="M1857 6743 l-117 -67 470 -238 470 -239 98 55 c54 31 105 61 115 68
14 11 -49 46 -451 250 l-468 237 -117 -66z"/>
<path d="M3322 5983 l3 -685 424 -217 c306 -155 430 -224 445 -244 17 -23 22
-47 25 -118 3 -87 4 -90 32 -105 l29 -15 0 791 0 790 -22 13 c-13 8 -229 118
-481 245 l-457 231 2 -686z"/>
<path d="M1590 5101 l0 -1350 474 -240 c260 -133 476 -241 480 -241 3 0 5 608
4 1352 l-3 1352 -470 238 c-259 131 -473 238 -477 238 -5 0 -8 -607 -8 -1349z"/>
<path d="M4658 6252 l-118 -67 0 -782 c0 -431 3 -783 7 -783 4 0 60 30 125 67
l118 67 0 783 c0 431 -3 783 -7 783 -5 0 -61 -30 -125 -68z"/>
<path d="M2933 6043 l-113 -65 0 -1350 0 -1350 58 32 c31 18 85 49 120 68 l62
36 0 1348 c0 741 -3 1348 -7 1347 -5 -1 -59 -30 -120 -66z"/>
<path d="M3320 4877 l0 -122 125 -63 c69 -34 129 -62 134 -62 5 0 59 29 121
64 l111 64 -240 121 c-132 66 -242 121 -245 121 -3 0 -6 -55 -6 -123z"/>
<path d="M3823 4463 l-113 -65 0 -669 c0 -368 3 -669 8 -669 4 1 59 31 122 68
l115 67 3 668 c2 531 0 667 -10 666 -7 -1 -64 -30 -125 -66z"/>
<path d="M3320 3881 l0 -578 -23 -34 c-12 -19 -42 -44 -65 -57 -23 -13 -42
-27 -42 -30 0 -7 243 -132 255 -132 3 0 5 303 5 673 l0 673 -65 32 -65 32 0
-579z"/>
</g>
</svg>
